<svg width="24" height="24" viewBox="0 0 24 24" fill="none" xmlns="http://www.w3.org/2000/svg">
<g clip-path="url(#clip0_20268_3290)">
<g opacity="0.08">
<path d="M6.04926 24C2.55707 24 0.21051 21.6535 0.21051 18.1613V7.10193C0.21051 3.60975 2.55703 1.26318 6.04926 1.26318H17.9507C21.4429 1.26318 23.7895 3.6097 23.7895 7.10193V18.1613C23.7895 21.6535 21.443 24 17.9507 24H6.04926Z" fill="black"/>
</g>
<path d="M6.04926 23.5789C2.55707 23.5789 0.21051 21.2324 0.21051 17.7402V6.68079C0.21051 3.1886 2.55703 0.842041 6.04926 0.842041H17.9507C21.4429 0.842041 23.7895 3.18856 23.7895 6.68079V17.7402C23.7895 21.2323 21.443 23.5789 17.9507 23.5789H6.04926Z" fill="url(#paint0_linear_20268_3290)"/>
<path d="M0.21051 6.73681V6.68079C0.21051 3.1886 2.55703 0.842041 6.04926 0.842041H17.9507C21.4429 0.842041 23.7895 3.18856 23.7895 6.68079V6.73681H0.21051Z" fill="#F4413D"/>
<g opacity="0.16">
<path d="M17.9507 0.842041H6.04926C2.55707 0.842041 0.21051 3.18856 0.21051 6.68079V17.7402C0.21051 21.2323 2.55703 23.5789 6.04926 23.5789H17.9507C21.4429 23.5789 23.7895 21.2324 23.7895 17.7402V6.68079C23.7895 3.18856 21.443 0.842041 17.9507 0.842041ZM22.9474 17.7402C22.9474 20.7755 20.9861 22.7368 17.9507 22.7368H6.04926C3.01387 22.7368 1.05262 20.7755 1.05262 17.7402V6.68079C1.05262 3.6454 3.01387 1.68415 6.04926 1.68415H17.9507C20.9861 1.68415 22.9474 3.6454 22.9474 6.68079V17.7402Z" fill="url(#paint1_linear_20268_3290)"/>
</g>
<path d="M8.45309 13.8466H9.42026C10.5083 13.8466 11.2564 13.1788 11.2564 12.2521C11.2564 11.354 10.5773 10.7207 9.45476 10.7207C8.42445 10.7207 7.69305 11.3426 7.60676 12.2635H6.84677C6.94446 10.9279 7.99245 10.0298 9.48888 10.0298C10.9512 10.0298 12.0506 10.922 12.0506 12.154C12.0506 13.1961 11.3769 13.9443 10.3179 14.1342V14.1573C11.5899 14.2323 12.4076 15.0209 12.4076 16.1952C12.4076 17.5998 11.1529 18.6015 9.5352 18.6015C7.85984 18.6015 6.72593 17.6458 6.67413 16.3161H7.43412C7.49726 17.2428 8.33224 17.9106 9.52971 17.9106C10.7327 17.9106 11.608 17.2024 11.608 16.218C11.608 15.1586 10.7907 14.514 9.45518 14.514H8.45351C8.45309 14.5144 8.45309 13.8466 8.45309 13.8466Z" fill="#413D3D"/>
<path d="M15.7238 10.997H15.7007C15.5685 11.0775 14.1293 12.1195 13.4729 12.5284V11.688C13.7205 11.5326 15.4817 10.2892 15.7121 10.1511H16.4834V18.4694H15.7235L15.7238 10.997Z" fill="#413D3D"/>
<path opacity="0.24" d="M5.68422 5.05265C6.38184 5.05265 6.94736 4.48712 6.94736 3.78951C6.94736 3.09189 6.38184 2.52637 5.68422 2.52637C4.98661 2.52637 4.42108 3.09189 4.42108 3.78951C4.42108 4.48712 4.98661 5.05265 5.68422 5.05265Z" fill="black"/>
<path opacity="0.24" d="M18.3158 5.05265C19.0134 5.05265 19.579 4.48712 19.579 3.78951C19.579 3.09189 19.0134 2.52637 18.3158 2.52637C17.6182 2.52637 17.0527 3.09189 17.0527 3.78951C17.0527 4.48712 17.6182 5.05265 18.3158 5.05265Z" fill="black"/>
<g opacity="0.16">
<path d="M17.9507 0.842041H6.04926C2.55707 0.842041 0.21051 3.18856 0.21051 6.68079V17.7402C0.21051 21.2323 2.55703 23.5789 6.04926 23.5789H17.9507C21.4429 23.5789 23.7895 21.2324 23.7895 17.7402V6.68079C23.7895 3.18856 21.443 0.842041 17.9507 0.842041ZM23.3684 17.7402C23.3684 20.9806 21.1911 23.1578 17.9507 23.1578H6.04926C2.80884 23.1578 0.631588 20.9806 0.631588 17.7402V6.68079C0.631588 3.44037 2.80884 1.26312 6.04926 1.26312H17.9507C21.1911 1.26312 23.3684 3.44037 23.3684 6.68079V17.7402Z" fill="black"/>
</g>
<path d="M5.68421 4.21055C5.45181 4.21055 5.26318 4.02192 5.26318 3.78952V0.421031C5.26318 0.188625 5.45181 0 5.68421 0C5.91662 0 6.10525 0.188625 6.10525 0.421031V3.78947C6.10529 4.02187 5.91662 4.21055 5.68421 4.21055Z" fill="url(#paint2_linear_20268_3290)"/>
<path d="M18.3158 4.21055C18.0834 4.21055 17.8948 4.02192 17.8948 3.78952V0.421031C17.8948 0.188625 18.0834 0 18.3158 0C18.5482 0 18.7368 0.188625 18.7368 0.421031V3.78947C18.7368 4.02187 18.5482 4.21055 18.3158 4.21055Z" fill="url(#paint3_linear_20268_3290)"/>
</g>
<defs>
<linearGradient id="paint0_linear_20268_3290" x1="12" y1="23.5777" x2="12" y2="0.840728" gradientUnits="userSpaceOnUse">
<stop stop-color="#ECECEC"/>
<stop offset="1" stop-color="white"/>
</linearGradient>
<linearGradient id="paint1_linear_20268_3290" x1="12" y1="23.5777" x2="12" y2="0.840728" gradientUnits="userSpaceOnUse">
<stop/>
<stop offset="0.06" stop-opacity="0"/>
</linearGradient>
<linearGradient id="paint2_linear_20268_3290" x1="5.68417" y1="4.20923" x2="5.68417" y2="-0.00131281" gradientUnits="userSpaceOnUse">
<stop stop-color="white"/>
<stop offset="1" stop-color="#DCDCDC"/>
</linearGradient>
<linearGradient id="paint3_linear_20268_3290" x1="18.3158" y1="4.20923" x2="18.3158" y2="-0.00131281" gradientUnits="userSpaceOnUse">
<stop stop-color="white"/>
<stop offset="1" stop-color="#DCDCDC"/>
</linearGradient>
<clipPath id="clip0_20268_3290">
<rect width="24" height="24" fill="white"/>
</clipPath>
</defs>
</svg>
