<svg width="27" height="26" viewBox="0 0 27 26" fill="none" xmlns="http://www.w3.org/2000/svg">
<path d="M22.5122 8.5084C22.4073 8.56966 19.9095 9.86143 19.9095 12.7257C20.0272 15.9922 23.0616 17.1377 23.1137 17.1377C23.0616 17.1989 22.6556 18.6982 21.4527 20.2698C20.498 21.6236 19.4385 22.9886 17.8296 22.9886C16.2991 22.9886 15.7497 22.0863 13.9838 22.0863C12.0873 22.0863 11.5506 22.9886 10.0987 22.9886C8.48981 22.9886 7.35173 21.5505 6.3451 20.2095C5.03726 18.4541 3.92566 15.6996 3.88642 13.0548C3.85997 11.6533 4.14832 10.2755 4.88028 9.10546C5.91341 7.47169 7.75774 6.36273 9.77197 6.32619C11.3152 6.27771 12.6887 7.3136 13.6305 7.3136C14.5332 7.3136 16.2207 6.32619 18.1298 6.32619C18.9539 6.32702 21.1515 6.55831 22.5122 8.5084ZM13.5 6.04641C13.2253 4.76649 13.9838 3.48662 14.6902 2.67019C15.5927 1.68285 17.0182 1.0127 18.2475 1.0127C18.3261 2.29259 17.8287 3.54782 16.9398 4.46203C16.1421 5.44936 14.7686 6.19269 13.5 6.04641Z" fill="#3E3737"/>
</svg>
