<svg width="13" height="11" viewBox="0 0 13 11" fill="none" xmlns="http://www.w3.org/2000/svg">
<path d="M11.6735 4.58736H2.69388L5.64816 1.56936C5.73233 1.48408 5.79913 1.38262 5.84472 1.27084C5.89031 1.15905 5.91378 1.03915 5.91378 0.918054C5.91378 0.796956 5.89031 0.677056 5.84472 0.565272C5.79913 0.453487 5.73233 0.352029 5.64816 0.266752C5.47992 0.0958988 5.25233 0 5.0151 0C4.77787 0 4.55028 0.0958988 4.38204 0.266752L0.529796 4.21126C0.192534 4.55374 0.00200495 5.0189 0 5.50469C0.00437 5.9873 0.194717 6.44872 0.529796 6.78895L4.38204 10.7335C4.46577 10.8184 4.56504 10.8856 4.67421 10.9314C4.78338 10.9771 4.90029 11.0004 5.01828 11C5.13626 10.9996 5.25301 10.9754 5.36186 10.9289C5.47071 10.8824 5.56952 10.8144 5.65265 10.7289C5.73579 10.6433 5.80162 10.5419 5.84638 10.4304C5.89115 10.3189 5.91398 10.1994 5.91356 10.0789C5.91314 9.95838 5.88949 9.83911 5.84395 9.72792C5.79842 9.61672 5.73189 9.51578 5.64816 9.43085L2.69388 6.42202H11.6735C11.9116 6.42202 12.14 6.32537 12.3084 6.15334C12.4768 5.98131 12.5714 5.74798 12.5714 5.50469C12.5714 5.2614 12.4768 5.02808 12.3084 4.85604C12.14 4.68401 11.9116 4.58736 11.6735 4.58736Z" fill="white"/>
</svg>
