<svg width="17" height="12" viewBox="0 0 17 12" fill="none" xmlns="http://www.w3.org/2000/svg">
<path d="M13.8868 0H2.42433C2.12258 0 1.87925 0.244014 1.87925 0.545767C1.87925 0.84752 2.12258 1.09016 2.42433 1.09016H13.8868C14.6512 1.09016 15.2732 1.7136 15.2732 2.47795V2.53087H2.42433C2.12258 2.53087 1.87925 2.77351 1.87925 3.07527C1.87925 3.37633 2.12258 3.62035 2.42433 3.62035H15.2732V9.52274C15.2732 10.2864 14.6512 10.9098 13.8868 10.9098H2.47726C1.71291 10.9098 1.09085 10.2864 1.09085 9.52274V2.42365C1.09085 2.12189 0.846832 1.87788 0.545767 1.87788C0.244014 1.87788 0 2.12189 0 2.42365V9.52274C0 10.8892 1.11147 12 2.47726 12H13.8868C15.2526 12 16.3648 10.8892 16.3648 9.52274V2.47795C16.3648 1.11147 15.2526 0 13.8868 0ZM13.5686 7.78646C13.8696 7.78646 14.1143 7.54245 14.1143 7.24138C14.1143 6.93894 13.8696 6.6963 13.5686 6.6963H8.15557C7.85382 6.6963 7.60981 6.93894 7.60981 7.24138C7.60981 7.54245 7.85382 7.78646 8.15557 7.78646H13.5686ZM3.2368 6.39592H4.92771V8.08615H3.2368V6.39592ZM5.47279 9.17768C5.77454 9.17768 6.01856 8.93367 6.01856 8.63123V5.85015C6.01856 5.54909 5.77454 5.30439 5.47279 5.30439H2.69172C2.38996 5.30439 2.14664 5.54909 2.14664 5.85015V8.63123C2.14664 8.93367 2.38996 9.17768 2.69172 9.17768H5.47279Z" fill="#2790C3"/>
</svg>
