<svg width="13" height="13" viewBox="0 0 13 13" fill="none" xmlns="http://www.w3.org/2000/svg">
<path d="M7.83168 11.2291H1.56123C1.41411 11.2285 1.27304 11.1705 1.16817 11.0673C1.0633 10.9641 1.00294 10.824 1 10.6769V1.68818C1 1.53934 1.05913 1.39658 1.16438 1.29133C1.26963 1.18608 1.41238 1.12695 1.56123 1.12695H10.5409C10.6898 1.12695 10.8325 1.18608 10.9378 1.29133C11.043 1.39658 11.1021 1.53934 11.1021 1.68818V6.737" stroke="#2790C3" stroke-width="0.676181"/>
<path d="M1 3.60645H11.1021" stroke="#2790C3" stroke-width="0.676181"/>
<path d="M3.27832 1.12697V0" stroke="#2790C3" stroke-width="0.676181"/>
<path d="M8.67969 1.12697V0" stroke="#2790C3" stroke-width="0.676181"/>
<path d="M9.7616 11.9998C11.3089 11.9998 12.5632 10.7454 12.5632 9.19813C12.5632 7.65082 11.3089 6.39648 9.7616 6.39648C8.2143 6.39648 6.95996 7.65082 6.95996 9.19813C6.95996 10.7454 8.2143 11.9998 9.7616 11.9998Z" stroke="#2790C3" stroke-width="0.676181"/>
<path d="M9.76074 7.22852V9.2841L10.7412 10.0369" stroke="#2790C3" stroke-width="0.676181"/>
</svg>
