<svg width="17" height="17" viewBox="0 0 17 17" fill="none" xmlns="http://www.w3.org/2000/svg">
<path d="M12.5757 16.9988C7.164 16.9988 -0.00433668 9.8234 -0.00433668 4.41882C-0.00433668 3.2359 0.441914 2.1309 1.2565 1.31632L2.07108 0.607987C2.89275 -0.21368 4.28108 -0.21368 5.13816 0.643403C5.15941 0.664653 6.46983 2.37174 6.46983 2.37174C7.27733 3.22174 7.27733 4.56049 6.46983 5.4034L5.64108 6.43757C6.60441 8.70424 8.21941 10.3122 10.564 11.3463L11.5982 10.5247C12.4411 9.71007 13.7869 9.71007 14.6298 10.5247C14.6298 10.5247 16.3369 11.8351 16.3582 11.8563C17.2152 12.7134 17.2152 14.1017 16.3582 14.9588L15.7136 15.7026C14.8707 16.5526 13.7657 16.9988 12.5827 16.9988H12.5757Z" fill="#2A2A2A"/>
</svg>
