<svg width="13" height="13" viewBox="0 0 13 13" fill="none" xmlns="http://www.w3.org/2000/svg">
<path d="M8.9294 8.86268L9.23306 8.54302L8.50801 7.85438L8.20436 8.17404L8.9294 8.86268ZM10.2322 8.40843L11.5058 9.14154L12.0046 8.2749L10.731 7.54179L10.2322 8.40843ZM11.7516 10.6614L10.8045 11.6585L11.5296 12.3471L12.4766 11.3501L11.7516 10.6614ZM10.2348 11.9779C9.27812 12.0724 6.782 11.9918 4.07266 9.13934L3.34763 9.82798C6.30042 12.9367 9.11713 13.0931 10.333 12.9731L10.2348 11.9779ZM4.07266 9.13934C1.48866 6.41883 1.05522 4.12407 1.0012 3.11756L0.00266996 3.17115C0.0688345 4.40393 0.592271 6.92714 3.34763 9.82798L4.07266 9.13934ZM4.98953 4.71475L5.18073 4.51342L4.45569 3.82478L4.26449 4.02608L4.98953 4.71475ZM5.33094 2.00718L4.49031 0.818227L3.67381 1.39552L4.51444 2.58447L5.33094 2.00718ZM1.64508 0.561902L0.598711 1.66353L1.32374 2.35219L2.37011 1.25057L1.64508 0.561902ZM4.62701 4.37041C4.26449 4.02608 4.26403 4.02656 4.26357 4.02705C4.26341 4.02722 4.26294 4.02772 4.26263 4.02805C4.26199 4.02873 4.26134 4.02942 4.26069 4.03012C4.25938 4.03154 4.25802 4.03301 4.25662 4.03455C4.25383 4.03762 4.25086 4.04095 4.24774 4.04454C4.24151 4.05171 4.23465 4.05991 4.22733 4.06917C4.21267 4.08769 4.19609 4.11045 4.1787 4.13762C4.14383 4.19212 4.106 4.2639 4.07397 4.35391C4.00884 4.53695 3.97335 4.77935 4.0177 5.08207C4.10484 5.67678 4.49453 6.47656 5.51273 7.54852L6.23775 6.85988C5.28603 5.85784 5.0516 5.24073 5.0071 4.93707C4.98564 4.79061 5.00745 4.71341 5.01607 4.68915C5.02092 4.67555 5.02409 4.67175 5.02099 4.67662C5.01949 4.67895 5.01649 4.68335 5.01145 4.68975C5.00892 4.69288 5.00589 4.69662 5.00226 4.70075C5.00045 4.70288 4.99848 4.70508 4.99637 4.70742C4.99531 4.70855 4.99421 4.70975 4.99307 4.71095C4.9925 4.71161 4.99192 4.71221 4.99133 4.71281C4.99103 4.71315 4.99058 4.71361 4.99043 4.71381C4.98998 4.71428 4.98953 4.71475 4.62701 4.37041ZM5.51273 7.54852C6.52795 8.61736 7.29465 9.03754 7.87963 9.13254C8.17982 9.18127 8.42282 9.14234 8.60681 9.06981C8.69674 9.03434 8.76787 8.99268 8.82127 8.95481C8.84794 8.93588 8.87014 8.91794 8.888 8.90228C8.897 8.89441 8.90487 8.88708 8.91173 8.88041C8.9152 8.87715 8.9184 8.87395 8.92133 8.87101C8.9228 8.86955 8.9242 8.86808 8.92553 8.86668C8.9262 8.86601 8.92687 8.86535 8.92753 8.86468C8.92787 8.86435 8.92833 8.86381 8.92847 8.86368C8.92893 8.86315 8.9294 8.86268 8.56688 8.51836C8.20436 8.17404 8.20482 8.17357 8.20529 8.1731C8.20542 8.1729 8.20589 8.17244 8.20616 8.1721C8.20676 8.1715 8.20736 8.1709 8.20796 8.1703C8.20916 8.1691 8.21029 8.1679 8.21136 8.16677C8.21362 8.16457 8.21576 8.16244 8.21776 8.1605C8.22176 8.15664 8.22542 8.1533 8.22862 8.1505C8.23496 8.1449 8.23969 8.1413 8.24276 8.13917C8.24902 8.1347 8.24836 8.13624 8.23989 8.13957C8.22702 8.14464 8.16643 8.16604 8.03996 8.1455C7.77157 8.1019 7.19252 7.86505 6.23775 6.85988L5.51273 7.54852ZM4.49031 0.818227C3.81461 -0.137462 2.4625 -0.298696 1.64508 0.561902L2.37011 1.25057C2.71866 0.883612 3.33226 0.912437 3.67381 1.39552L4.49031 0.818227ZM1.0012 3.11756C0.986911 2.85137 1.10282 2.58478 1.32374 2.35219L0.598711 1.66353C0.241489 2.03961 -0.0300223 2.56206 0.00266996 3.17115L1.0012 3.11756ZM10.8045 11.6585C10.6185 11.8543 10.424 11.9592 10.2348 11.9779L10.333 12.9731C10.831 12.9239 11.2341 12.6583 11.5296 12.3471L10.8045 11.6585ZM5.18073 4.51342C5.82576 3.83434 5.87143 2.7716 5.33094 2.00718L4.51444 2.58447C4.79586 2.9825 4.75271 3.51207 4.45569 3.82478L5.18073 4.51342ZM11.5058 9.14154C12.053 9.45653 12.1601 10.2314 11.7516 10.6614L12.4766 11.3501C13.3465 10.4342 13.0932 8.90148 12.0046 8.2749L11.5058 9.14154ZM9.23306 8.54302C9.48998 8.2725 9.89037 8.2117 10.2322 8.40843L10.731 7.54179C9.9987 7.12027 9.09046 7.24113 8.50801 7.85438L9.23306 8.54302Z" fill="#2790C3"/>
</svg>
