<svg width="180" height="180" viewBox="0 0 180 180" fill="none" xmlns="http://www.w3.org/2000/svg">
<mask id="mask0_653_12447" style="mask-type:alpha" maskUnits="userSpaceOnUse" x="0" y="0" width="180" height="180">
<rect width="180" height="180" fill="#D9D9D9"/>
</mask>
<g mask="url(#mask0_653_12447)">
<path d="M79.5 103.5L63.375 87.375C62 86 60.25 85.3125 58.125 85.3125C56 85.3125 54.25 86 52.875 87.375C51.5 88.75 50.8125 90.5 50.8125 92.625C50.8125 94.75 51.5 96.5 52.875 97.875L74.25 119.25C75.75 120.75 77.5 121.5 79.5 121.5C81.5 121.5 83.25 120.75 84.75 119.25L127.125 76.875C128.5 75.5 129.188 73.75 129.188 71.625C129.188 69.5 128.5 67.75 127.125 66.375C125.75 65 124 64.3125 121.875 64.3125C119.75 64.3125 118 65 116.625 66.375L79.5 103.5ZM90 165C79.625 165 69.875 163.031 60.75 159.094C51.625 155.156 43.6875 149.812 36.9375 143.062C30.1875 136.313 24.8438 128.375 20.9062 119.25C16.9687 110.125 15 100.375 15 90C15 79.625 16.9687 69.875 20.9062 60.75C24.8438 51.625 30.1875 43.6875 36.9375 36.9375C43.6875 30.1875 51.625 24.8438 60.75 20.9062C69.875 16.9687 79.625 15 90 15C100.375 15 110.125 16.9687 119.25 20.9062C128.375 24.8438 136.313 30.1875 143.062 36.9375C149.812 43.6875 155.156 51.625 159.094 60.75C163.031 69.875 165 79.625 165 90C165 100.375 163.031 110.125 159.094 119.25C155.156 128.375 149.812 136.313 143.062 143.062C136.313 149.812 128.375 155.156 119.25 159.094C110.125 163.031 100.375 165 90 165Z" fill="#2790C3"/>
</g>
</svg>
