<svg width="19" height="19" viewBox="0 0 19 19" fill="none" xmlns="http://www.w3.org/2000/svg">
<path fill-rule="evenodd" clip-rule="evenodd" d="M7.21278 1.14026C6.98144 1.33741 6.86576 1.436 6.74221 1.51881C6.45901 1.70862 6.14096 1.84035 5.8065 1.90639C5.66059 1.9352 5.50908 1.94728 5.20608 1.97146C4.44477 2.03222 4.0641 2.06259 3.74653 2.17477C3.01199 2.43422 2.43422 3.01199 2.17477 3.74653C2.06259 4.0641 2.03222 4.44477 1.97146 5.20608C1.94728 5.50908 1.9352 5.66059 1.90639 5.8065C1.84035 6.14096 1.70862 6.45901 1.51881 6.74221C1.436 6.86576 1.33742 6.98143 1.14026 7.21278C0.644891 7.79409 0.397197 8.08469 0.251961 8.3886C-0.0839871 9.0915 -0.0839871 9.9085 0.251961 10.6114C0.397207 10.9153 0.644891 11.2059 1.14026 11.7872C1.33739 12.0185 1.436 12.1343 1.51881 12.2578C1.70862 12.5409 1.84035 12.859 1.90639 13.1935C1.9352 13.3394 1.94728 13.4909 1.97146 13.7939C2.03222 14.5552 2.06259 14.9359 2.17477 15.2535C2.43422 15.988 3.01199 16.5658 3.74653 16.8253C4.0641 16.9374 4.44477 16.9678 5.20608 17.0286C5.50908 17.0527 5.66059 17.0648 5.8065 17.0936C6.14096 17.1597 6.45901 17.2914 6.74221 17.4812C6.86576 17.564 6.98143 17.6626 7.21278 17.8597C7.79409 18.3551 8.08469 18.6028 8.3886 18.7481C9.0915 19.084 9.9085 19.084 10.6114 18.7481C10.9153 18.6028 11.2059 18.3551 11.7872 17.8597C12.0185 17.6626 12.1343 17.564 12.2578 17.4812C12.5409 17.2914 12.859 17.1597 13.1935 17.0936C13.3394 17.0648 13.4909 17.0527 13.7939 17.0286C14.5552 16.9678 14.9359 16.9374 15.2535 16.8253C15.988 16.5658 16.5658 15.988 16.8253 15.2535C16.9374 14.9359 16.9678 14.5552 17.0286 13.7939C17.0527 13.4909 17.0648 13.3394 17.0936 13.1935C17.1597 12.859 17.2914 12.5409 17.4812 12.2578C17.564 12.1343 17.6626 12.0185 17.8597 11.7872C18.3551 11.2059 18.6028 10.9153 18.7481 10.6114C19.084 9.9085 19.084 9.0915 18.7481 8.3886C18.6028 8.08469 18.3551 7.79409 17.8597 7.21278C17.6626 6.98143 17.564 6.86576 17.4812 6.74221C17.2914 6.45901 17.1597 6.14096 17.0936 5.8065C17.0648 5.66059 17.0527 5.50908 17.0286 5.20608C16.9678 4.44477 16.9374 4.0641 16.8253 3.74653C16.5658 3.01199 15.988 2.43422 15.2535 2.17477C14.9359 2.06259 14.5552 2.03222 13.7939 1.97146C13.4909 1.94728 13.3394 1.9352 13.1935 1.90639C12.859 1.84035 12.5409 1.70862 12.2578 1.51881C12.1343 1.436 12.0185 1.33742 11.7872 1.14026C11.2059 0.644891 10.9153 0.397207 10.6114 0.251961C9.9085 -0.0839871 9.0915 -0.0839871 8.3886 0.251961C8.08469 0.397197 7.79409 0.644891 7.21278 1.14026ZM13.6548 7.46998C13.9567 7.16804 13.9567 6.6785 13.6548 6.37655C13.3529 6.07461 12.8633 6.07461 12.5614 6.37655L7.95369 10.9843L6.43859 9.46922C6.13665 9.16731 5.64711 9.16731 5.34517 9.46922C5.04323 9.77113 5.04323 10.2607 5.34517 10.5627L7.40694 12.6245C7.70887 12.9264 8.19841 12.9264 8.50041 12.6245L13.6548 7.46998Z" fill="#F79E1B"/>
</svg>
