<svg width="14" height="14" viewBox="0 0 14 14" fill="none" xmlns="http://www.w3.org/2000/svg">
<path d="M9.42107 3.5911H4.23887V1.64777C4.23887 1.47597 4.30712 1.31121 4.4286 1.18973C4.55008 1.06825 4.71485 1 4.88665 1H8.7733C8.9451 1 9.10986 1.06825 9.23134 1.18973C9.35282 1.31121 9.42107 1.47597 9.42107 1.64777V3.5911ZM12.6599 12.0122V4.23887C12.6599 4.06707 12.5917 3.90231 12.4702 3.78083C12.3487 3.65935 12.184 3.5911 12.0122 3.5911H1.64777C1.47597 3.5911 1.31121 3.65935 1.18973 3.78083C1.06825 3.90231 1 4.06707 1 4.23887V12.0122C1 12.184 1.06825 12.3487 1.18973 12.4702C1.31121 12.5917 1.47597 12.6599 1.64777 12.6599H12.0122C12.184 12.6599 12.3487 12.5917 12.4702 12.4702C12.5917 12.3487 12.6599 12.184 12.6599 12.0122Z" stroke="#2790C3" stroke-width="1.29555" stroke-linecap="round" stroke-linejoin="round"/>
</svg>
