<svg width="27" height="26" viewBox="0 0 27 26" fill="none" xmlns="http://www.w3.org/2000/svg">
<path d="M24.7009 13.0485C24.7009 12.1277 24.6247 11.4557 24.4597 10.7588H13.7295V14.9152H20.0279C19.9009 15.9481 19.2152 17.5037 17.6913 18.5489L17.67 18.6881L21.0627 21.2638L21.2977 21.2868C23.4565 19.333 24.7009 16.4583 24.7009 13.0485Z" fill="#4285F4"/>
<path d="M13.729 23.9996C16.8147 23.9996 19.4051 23.004 21.2973 21.2867L17.6909 18.5488C16.7258 19.2084 15.4306 19.6688 13.729 19.6688C10.7069 19.6688 8.1418 17.7151 7.22744 15.0146L7.09341 15.0258L3.56567 17.7014L3.51953 17.827C5.39888 21.4858 9.2592 23.9996 13.729 23.9996Z" fill="#34A853"/>
<path d="M7.22772 15.015C6.98645 14.3181 6.84682 13.5714 6.84682 12.7999C6.84682 12.0283 6.98645 11.2816 7.21502 10.5848L7.20863 10.4363L3.63667 7.71777L3.51981 7.77225C2.74524 9.29052 2.30078 10.9954 2.30078 12.7999C2.30078 14.6043 2.74524 16.3092 3.51981 17.8274L7.22772 15.015Z" fill="#FBBC05"/>
<path d="M13.7291 5.93123C15.8751 5.93123 17.3227 6.83967 18.1482 7.59883L21.3735 4.51259C19.3926 2.70815 16.8148 1.60059 13.7291 1.60059C9.2592 1.60059 5.39888 4.11435 3.51953 7.77298L7.21476 10.5855C8.14183 7.88503 10.7069 5.93123 13.7291 5.93123Z" fill="#EB4335"/>
</svg>
