<svg width="24" height="24" viewBox="0 0 24 24" fill="none" xmlns="http://www.w3.org/2000/svg">
<g clip-path="url(#clip0_20268_3253)">
<path d="M8.27524 15.4832C7.80312 15.1642 7.4763 14.6984 7.29785 14.0826L8.39365 13.631C8.49312 14.01 8.66679 14.3036 8.91471 14.5121C9.16104 14.7205 9.46104 14.8231 9.81157 14.8231C10.17 14.8231 10.4779 14.7142 10.7352 14.4963C10.9926 14.2784 11.1221 14.0005 11.1221 13.6642C11.1221 13.32 10.9863 13.0389 10.7147 12.821C10.4431 12.6032 10.1021 12.4942 9.69471 12.4942H9.06157V11.4094H9.62998C9.98051 11.4094 10.2758 11.3147 10.5158 11.1252C10.7558 10.9358 10.8758 10.6768 10.8758 10.3468C10.8758 10.0531 10.7684 9.81943 10.5536 9.64421C10.3389 9.46895 10.0673 9.38054 9.73732 9.38054C9.41519 9.38054 9.15944 9.46581 8.96993 9.63793C8.78046 9.81006 8.64307 10.0216 8.55626 10.2711L7.47152 9.81948C7.6152 9.41209 7.87891 9.05209 8.26573 8.74107C8.65259 8.43001 9.14679 8.27368 9.74679 8.27368C10.1905 8.27368 10.5899 8.35895 10.9436 8.53107C11.2973 8.7032 11.5752 8.9416 11.7758 9.24474C11.9763 9.54948 12.0758 9.89054 12.0758 10.2695C12.0758 10.6563 11.9826 10.9832 11.7963 11.2516C11.61 11.52 11.381 11.7253 11.1094 11.869V11.9337C11.4679 12.0837 11.76 12.3127 11.9905 12.6206C12.2194 12.9285 12.3347 13.2964 12.3347 13.7259C12.3347 14.1553 12.2258 14.539 12.0079 14.8753C11.79 15.2116 11.4884 15.4769 11.1063 15.6695C10.7226 15.8621 10.2915 15.9601 9.81312 15.9601C9.25891 15.9616 8.74737 15.8021 8.27524 15.4832Z" fill="#0085F7"/>
<path d="M15.0063 10.0453L13.8031 10.9153L13.2015 10.0026L15.3599 8.4458H16.1873V15.7895H15.0063V10.0453Z" fill="#0085F7"/>
<path d="M18.3158 18.3159H5.68425L3.8761 20.9802L5.68425 24.0001H18.3158L19.8097 20.787L18.3158 18.3159Z" fill="#00A94B"/>
<path d="M18.3158 0H1.89473C0.847875 0 0 0.847875 0 1.89473V18.3158L2.84212 20.3363L5.68425 18.3158V5.6842H18.3158L20.2603 2.84208L18.3158 0Z" fill="#0085F7"/>
<path d="M0 18.3159V22.1054C0 23.1522 0.847875 24.0001 1.89473 24.0001H5.6842V18.3159H0Z" fill="#00802E"/>
<path d="M24 5.68425L21.1579 3.85547L18.3158 5.68425V18.3158L20.8718 19.65L24 18.3158V5.68425Z" fill="#FFBC00"/>
<path d="M24 5.6842V1.89473C24 0.847875 23.1521 0 22.1053 0H18.3158V5.6842H24Z" fill="#0067D5"/>
<path d="M18.3158 24.0001L24 18.3159H18.3158V24.0001Z" fill="#FF4131"/>
</g>
<defs>
<clipPath id="clip0_20268_3253">
<rect width="24" height="24" fill="white"/>
</clipPath>
</defs>
</svg>
