<svg width="24" height="24" viewBox="0 0 24 24" fill="none" xmlns="http://www.w3.org/2000/svg">
<g clip-path="url(#clip0_660_18717)">
<path d="M23.0845 9.05482L15.5115 1.4808C14.5742 0.546269 13.3046 0.0214844 11.9811 0.0214844C10.6575 0.0214844 9.38792 0.546269 8.45064 1.4808L0.877624 9.05482C0.598491 9.33216 0.377185 9.66216 0.226536 10.0257C0.0758872 10.3892 -0.00110865 10.779 1.20604e-05 11.1725V20.974C1.20604e-05 21.7684 0.315583 22.5302 0.877304 23.0919C1.43902 23.6537 2.20088 23.9692 2.99527 23.9692H20.9668C21.7612 23.9692 22.5231 23.6537 23.0848 23.0919C23.6465 22.5302 23.9621 21.7684 23.9621 20.974V11.1725C23.9632 10.779 23.8862 10.3892 23.7356 10.0257C23.5849 9.66216 23.3636 9.33216 23.0845 9.05482ZM14.9763 21.9724H8.9858V18.0446C8.9858 17.2502 9.30137 16.4883 9.86309 15.9266C10.4248 15.3649 11.1867 15.0493 11.9811 15.0493C12.7754 15.0493 13.5373 15.3649 14.099 15.9266C14.6607 16.4883 14.9763 17.2502 14.9763 18.0446V21.9724ZM21.9653 20.974C21.9653 21.2388 21.8601 21.4927 21.6728 21.68C21.4856 21.8672 21.2316 21.9724 20.9668 21.9724H16.9732V18.0446C16.9732 16.7206 16.4472 15.4508 15.511 14.5146C14.5748 13.5784 13.305 13.0525 11.9811 13.0525C10.6571 13.0525 9.38731 13.5784 8.45111 14.5146C7.51491 15.4508 6.98896 16.7206 6.98896 18.0446V21.9724H2.99527C2.73048 21.9724 2.47652 21.8672 2.28928 21.68C2.10204 21.4927 1.99685 21.2388 1.99685 20.974V11.1725C1.99778 10.9079 2.10287 10.6543 2.28939 10.4666L9.86241 2.89556C10.4252 2.33538 11.187 2.02089 11.9811 2.02089C12.7751 2.02089 13.5369 2.33538 14.0997 2.89556L21.6727 10.4696C21.8585 10.6565 21.9636 10.9089 21.9653 11.1725V20.974Z" fill="#2790C3"/>
</g>
<defs>
<clipPath id="clip0_660_18717">
<rect width="23.9621" height="23.9621" fill="white"/>
</clipPath>
</defs>
</svg>
