<svg width="8" height="8" viewBox="0 0 8 8" fill="none" xmlns="http://www.w3.org/2000/svg">
<g clip-path="url(#clip0_653_13772)">
<path d="M3.99984 2C3.73613 2 3.47834 2.0782 3.25908 2.22471C3.03981 2.37122 2.86892 2.57945 2.768 2.82309C2.66708 3.06672 2.64068 3.33481 2.69212 3.59345C2.74357 3.8521 2.87056 4.08967 3.05703 4.27614C3.2435 4.46261 3.48108 4.5896 3.73972 4.64105C3.99836 4.69249 4.26645 4.66609 4.51008 4.56517C4.75372 4.46426 4.96196 4.29336 5.10846 4.07409C5.25497 3.85483 5.33317 3.59704 5.33317 3.33333C5.33317 2.97971 5.1927 2.64057 4.94265 2.39052C4.6926 2.14048 4.35346 2 3.99984 2ZM3.99984 4C3.86798 4 3.73909 3.9609 3.62946 3.88765C3.51983 3.81439 3.43438 3.71027 3.38392 3.58846C3.33346 3.46664 3.32026 3.33259 3.34598 3.20327C3.3717 3.07395 3.4352 2.95516 3.52843 2.86193C3.62167 2.76869 3.74046 2.7052 3.86978 2.67948C3.9991 2.65375 4.13314 2.66696 4.25496 2.71741C4.37678 2.76787 4.4809 2.85332 4.55415 2.96295C4.62741 3.07259 4.6665 3.20148 4.6665 3.33333C4.6665 3.51014 4.59627 3.67971 4.47124 3.80474C4.34622 3.92976 4.17665 4 3.99984 4Z" fill="#2790C3"/>
<path d="M4.0001 8.00018C3.71942 8.00162 3.44247 7.93578 3.19246 7.8082C2.94244 7.68061 2.72664 7.49498 2.5631 7.26685C1.29277 5.51451 0.648438 4.19718 0.648438 3.35118C0.648438 2.46226 1.00156 1.60975 1.63012 0.981192C2.25868 0.352633 3.11119 -0.000488281 4.0001 -0.000488281C4.88902 -0.000488281 5.74153 0.352633 6.37009 0.981192C6.99865 1.60975 7.35177 2.46226 7.35177 3.35118C7.35177 4.19718 6.70744 5.51451 5.4371 7.26685C5.27357 7.49498 5.05776 7.68061 4.80775 7.8082C4.55773 7.93578 4.28079 8.00162 4.0001 8.00018ZM4.0001 0.727179C3.30424 0.727973 2.63711 1.00475 2.14506 1.4968C1.65301 1.98885 1.37623 2.65598 1.37544 3.35185C1.37544 4.02185 2.00644 5.26085 3.15177 6.84051C3.249 6.97444 3.37656 7.08344 3.52401 7.1586C3.67146 7.23376 3.8346 7.27295 4.0001 7.27295C4.1656 7.27295 4.32875 7.23376 4.4762 7.1586C4.62365 7.08344 4.75121 6.97444 4.84844 6.84051C5.99377 5.26085 6.62477 4.02185 6.62477 3.35185C6.62398 2.65598 6.3472 1.98885 5.85515 1.4968C5.3631 1.00475 4.69597 0.727973 4.0001 0.727179Z" fill="#2790C3"/>
</g>
<defs>
<clipPath id="clip0_653_13772">
<rect width="8" height="8" fill="white"/>
</clipPath>
</defs>
</svg>
