<svg width="14" height="14" viewBox="0 0 14 14" fill="none" xmlns="http://www.w3.org/2000/svg">
<path d="M1.33477e-07 5.99192C1.33477e-07 6.26022 0.217516 6.47775 0.485831 6.47775C0.754146 6.47775 0.971662 6.26022 0.971662 5.99192H1.33477e-07ZM1.18122 9.31267C1.07854 9.06476 0.794347 8.94706 0.546456 9.04974C0.298566 9.15241 0.180846 9.43659 0.283525 9.68449L1.18122 9.31267ZM8.08559 13.2921L8.43675 12.6989L7.60053 12.2039L7.24938 12.7972L8.08559 13.2921ZM5.4904 12.6989L5.84157 13.2921L6.67771 12.7972L6.32656 12.2039L5.4904 12.6989ZM7.24938 12.7972C7.12455 13.0082 6.80261 13.0082 6.67771 12.7972L5.84157 13.2921C6.34269 14.1388 7.58447 14.1388 8.08559 13.2921L7.24938 12.7972ZM5.99192 0.971662H7.93524V1.33477e-07H5.99192V0.971662ZM12.9555 5.99192V6.63969H13.9272V5.99192H12.9555ZM4.24454 11.0067C3.4313 10.9927 3.00518 10.941 2.67116 10.8026L2.29932 11.7003C2.82076 11.9163 3.41467 11.9642 4.2278 11.9782L4.24454 11.0067ZM0.283525 9.68449C0.661559 10.5971 1.38667 11.3223 2.29932 11.7003L2.67116 10.8026C1.99658 10.5232 1.46064 9.98726 1.18122 9.31267L0.283525 9.68449ZM12.9555 6.63969C12.9555 7.40089 12.9552 7.94748 12.9258 8.37877C12.8967 8.80572 12.8406 9.08413 12.7459 9.31267L13.6436 9.68449C13.7955 9.31785 13.8627 8.92135 13.8952 8.44491C13.9274 7.97288 13.9272 7.38761 13.9272 6.63969H12.9555ZM9.69932 11.9782C10.5125 11.9642 11.1064 11.9163 11.6278 11.7003L11.256 10.8026C10.922 10.941 10.4958 10.9927 9.68261 11.0067L9.69932 11.9782ZM12.7459 9.31267C12.4665 9.98726 11.9306 10.5232 11.256 10.8026L11.6278 11.7003C12.5405 11.3223 13.2656 10.5971 13.6436 9.68449L12.7459 9.31267ZM7.93524 0.971662C9.00484 0.971662 9.77298 0.972174 10.3721 1.02914C10.964 1.08542 11.3407 1.19335 11.6409 1.37735L12.1486 0.548873C11.67 0.255593 11.1271 0.124885 10.4641 0.0618431C9.80828 -0.000511636 8.98606 1.33477e-07 7.93524 1.33477e-07V0.971662ZM13.9272 5.99192C13.9272 4.9411 13.9277 4.11888 13.8653 3.46307C13.8023 2.80004 13.6715 2.25714 13.3783 1.77855L12.5498 2.28624C12.7338 2.58651 12.8417 2.96314 12.898 3.55505C12.955 4.15418 12.9555 4.92228 12.9555 5.99192H13.9272ZM11.6409 1.37735C12.0114 1.60436 12.3228 1.91581 12.5498 2.28624L13.3783 1.77855C13.0712 1.27737 12.6498 0.855995 12.1486 0.548873L11.6409 1.37735ZM5.99192 1.33477e-07C4.9411 1.33477e-07 4.11888 -0.000511636 3.46307 0.0618431C2.80004 0.124885 2.25714 0.255593 1.77855 0.548873L2.28624 1.37735C2.58651 1.19335 2.96314 1.08542 3.55505 1.02914C4.15418 0.972174 4.92228 0.971662 5.99192 0.971662V1.33477e-07ZM0.971662 5.99192C0.971662 4.92228 0.972174 4.15418 1.02914 3.55505C1.08542 2.96314 1.19335 2.58651 1.37735 2.28624L0.548873 1.77855C0.255593 2.25714 0.124885 2.80004 0.0618431 3.46307C-0.000511636 4.11888 1.33477e-07 4.9411 1.33477e-07 5.99192H0.971662ZM1.77855 0.548873C1.27737 0.855995 0.855995 1.27737 0.548873 1.77855L1.37735 2.28624C1.60436 1.91581 1.91581 1.60436 2.28624 1.37735L1.77855 0.548873ZM6.32656 12.2039C6.19506 11.9818 6.07962 11.7857 5.96736 11.6316C5.84908 11.4694 5.7135 11.3234 5.52543 11.214L5.03691 12.0539C5.06763 12.0717 5.10947 12.1043 5.1821 12.2039C5.26072 12.3119 5.34955 12.4609 5.4904 12.6989L6.32656 12.2039ZM4.2278 11.9782C4.51224 11.9831 4.6924 11.9867 4.82973 12.0019C4.95806 12.0162 5.0078 12.0369 5.03691 12.0539L5.52543 11.214C5.33578 11.1036 5.13845 11.0585 4.93667 11.0361C4.74391 11.0148 4.51094 11.0113 4.24454 11.0067L4.2278 11.9782ZM8.43675 12.6989C8.57757 12.4609 8.66638 12.3119 8.74502 12.2039C8.81764 12.1043 8.85948 12.0717 8.89019 12.0539L8.4017 11.214C8.21365 11.3234 8.07801 11.4694 7.95979 11.6316C7.84753 11.7857 7.7321 11.9818 7.60053 12.2039L8.43675 12.6989ZM9.68261 11.0067C9.41618 11.0113 9.18324 11.0148 8.99046 11.0361C8.78868 11.0585 8.59137 11.1036 8.4017 11.214L8.89019 12.0539C8.91934 12.0369 8.96909 12.0162 9.09741 12.0019C9.23474 11.9867 9.41489 11.9831 9.69932 11.9782L9.68261 11.0067Z" fill="#2790C3"/>
<path d="M4.37305 6.31641H4.37888M6.95832 6.31641H6.96415M9.54941 6.31641H9.55524" stroke="#2790C3" stroke-width="1.29555" stroke-linecap="round" stroke-linejoin="round"/>
</svg>
