<svg width="24" height="24" viewBox="0 0 24 24" fill="none" xmlns="http://www.w3.org/2000/svg">
<g clip-path="url(#clip0_653_13782)">
<path d="M23.9622 11.2288C23.8178 8.8925 22.9929 6.64954 21.5892 4.77642C20.1854 2.90329 18.2643 1.4819 16.0625 0.687456C13.8607 -0.106985 11.4745 -0.239739 9.19816 0.305561C6.92182 0.85086 4.85481 2.05037 3.25196 3.75622C1.6491 5.46208 0.580473 7.59969 0.177811 9.90554C-0.224851 12.2114 0.0560584 14.5847 0.985907 16.7328C1.91576 18.8809 3.45389 20.71 5.4107 21.9945C7.3675 23.279 9.65743 23.9628 11.9982 23.9616H18.9701C20.2937 23.9603 21.5627 23.4339 22.4986 22.498C23.4345 21.5621 23.9609 20.2931 23.9622 18.9695V11.2288ZM21.9654 18.9695C21.9654 19.7639 21.6498 20.5258 21.0881 21.0875C20.5264 21.6492 19.7645 21.9648 18.9701 21.9648H11.9982C10.5893 21.9642 9.19644 21.6666 7.91033 21.0915C6.62422 20.5164 5.47376 19.6767 4.53398 18.6271C3.58965 17.578 2.88052 16.3392 2.45416 14.9936C2.0278 13.6481 1.89405 12.2269 2.06189 10.8254C2.32691 8.61486 3.32009 6.55537 4.88486 4.97161C6.44964 3.38785 8.49701 2.36991 10.7042 2.07826C11.1348 2.0243 11.5682 1.99695 12.0022 1.99639C14.329 1.99004 16.5837 2.80302 18.3711 4.29276C19.415 5.16033 20.2718 6.23084 20.8896 7.43941C21.5075 8.64797 21.8735 9.96942 21.9654 11.3236V18.9695Z" fill="#2790C3"/>
<path d="M7.98719 8.9861H11.9809C12.2457 8.9861 12.4996 8.88091 12.6869 8.69367C12.8741 8.50643 12.9793 8.25248 12.9793 7.98768C12.9793 7.72288 12.8741 7.46893 12.6869 7.28169C12.4996 7.09445 12.2457 6.98926 11.9809 6.98926H7.98719C7.72239 6.98926 7.46844 7.09445 7.2812 7.28169C7.09396 7.46893 6.98877 7.72288 6.98877 7.98768C6.98877 8.25248 7.09396 8.50643 7.2812 8.69367C7.46844 8.88091 7.72239 8.9861 7.98719 8.9861Z" fill="#2790C3"/>
<path d="M15.9746 10.9824H7.98719C7.72239 10.9824 7.46844 11.0876 7.2812 11.2749C7.09396 11.4621 6.98877 11.716 6.98877 11.9808C6.98877 12.2456 7.09396 12.4996 7.2812 12.6868C7.46844 12.8741 7.72239 12.9793 7.98719 12.9793H15.9746C16.2394 12.9793 16.4933 12.8741 16.6805 12.6868C16.8678 12.4996 16.973 12.2456 16.973 11.9808C16.973 11.716 16.8678 11.4621 16.6805 11.2749C16.4933 11.0876 16.2394 10.9824 15.9746 10.9824Z" fill="#2790C3"/>
<path d="M15.9746 14.9766H7.98719C7.72239 14.9766 7.46844 15.0818 7.2812 15.269C7.09396 15.4562 6.98877 15.7102 6.98877 15.975C6.98877 16.2398 7.09396 16.4937 7.2812 16.681C7.46844 16.8682 7.72239 16.9734 7.98719 16.9734H15.9746C16.2394 16.9734 16.4933 16.8682 16.6805 16.681C16.8678 16.4937 16.973 16.2398 16.973 15.975C16.973 15.7102 16.8678 15.4562 16.6805 15.269C16.4933 15.0818 16.2394 14.9766 15.9746 14.9766Z" fill="#2790C3"/>
</g>
<defs>
<clipPath id="clip0_653_13782">
<rect width="23.9621" height="23.9621" fill="white"/>
</clipPath>
</defs>
</svg>
