<svg width="18" height="18" viewBox="0 0 18 18" fill="none" xmlns="http://www.w3.org/2000/svg">
<path d="M14.7415 8.60225C14.7938 8.65449 14.8353 8.71653 14.8636 8.78481C14.8919 8.8531 14.9064 8.9263 14.9064 9.00022C14.9064 9.07414 14.8919 9.14734 14.8636 9.21562C14.8353 9.28391 14.7938 9.34595 14.7415 9.39819L8.97233 15.1638C8.23377 15.9023 7.23211 16.3171 6.1877 16.317C5.14329 16.317 4.14169 15.902 3.40322 15.1635C2.66476 14.4249 2.24993 13.4232 2.25 12.3788C2.25007 11.3344 2.66502 10.3328 3.40357 9.59436L10.3828 2.51248C10.9101 1.98465 11.6254 1.6879 12.3715 1.6875C13.1176 1.6871 13.8332 1.9831 14.3611 2.51037C14.8889 3.03765 15.1857 3.75301 15.1861 4.49908C15.1865 5.24515 14.8905 5.96082 14.3632 6.48866L7.38256 13.5705C7.06554 13.8875 6.63558 14.0656 6.18725 14.0656C5.73892 14.0656 5.30895 13.8875 4.99193 13.5705C4.67492 13.2535 4.49682 12.8235 4.49682 12.3752C4.49682 11.9269 4.67492 11.4969 4.99193 11.1799L10.849 5.23006C10.9003 5.17533 10.962 5.13141 11.0305 5.1009C11.0991 5.07038 11.173 5.05388 11.248 5.05237C11.323 5.05086 11.3976 5.06437 11.4673 5.09211C11.537 5.11984 11.6005 5.16124 11.6539 5.21386C11.7074 5.26648 11.7498 5.32927 11.7786 5.39853C11.8075 5.46778 11.8222 5.54211 11.8218 5.61713C11.8215 5.69215 11.8062 5.76635 11.7768 5.83536C11.7474 5.90437 11.7044 5.9668 11.6505 6.01897L5.79279 11.9751C5.74035 12.0272 5.69866 12.089 5.67012 12.1572C5.64158 12.2253 5.62673 12.2984 5.62644 12.3723C5.62615 12.4462 5.64041 12.5194 5.66841 12.5877C5.69641 12.6561 5.7376 12.7183 5.78963 12.7707C5.84166 12.8232 5.90351 12.8649 5.97165 12.8934C6.03979 12.9219 6.11289 12.9368 6.18677 12.9371C6.26064 12.9374 6.33386 12.9231 6.40222 12.8951C6.47059 12.8671 6.53277 12.8259 6.58522 12.7739L13.5651 5.69553C13.8822 5.37917 14.0605 4.94983 14.061 4.50196C14.0614 4.05409 13.884 3.62438 13.5676 3.30737C13.2512 2.99035 12.8219 2.81199 12.374 2.81153C11.9262 2.81107 11.4965 2.98854 11.1794 3.30491L4.20162 10.384C3.94022 10.645 3.73278 10.9549 3.59115 11.296C3.44952 11.6372 3.37648 12.0029 3.37618 12.3723C3.37589 12.7417 3.44835 13.1075 3.58944 13.4489C3.73053 13.7902 3.93747 14.1005 4.19846 14.3619C4.45944 14.6233 4.76936 14.8307 5.11052 14.9724C5.45167 15.114 5.81738 15.187 6.18677 15.1873C6.55615 15.1876 6.92198 15.1152 7.26336 14.9741C7.60474 14.833 7.91499 14.626 8.17639 14.3651L13.9462 8.59944C14.0521 8.4944 14.1953 8.43569 14.3444 8.43622C14.4936 8.43675 14.6364 8.49647 14.7415 8.60225Z" fill="black"/>
</svg>
