<svg width="8" height="7" viewBox="0 0 8 7" fill="none" xmlns="http://www.w3.org/2000/svg">
<path d="M3.36328 0.467431C3.45729 0.197007 3.50427 0.0617997 3.5738 0.0243258C3.63394 -0.0081086 3.70634 -0.0081086 3.76653 0.0243258C3.83601 0.0617997 3.88299 0.197007 3.977 0.467431L4.59844 2.2552C4.6252 2.33216 4.63856 2.37064 4.66269 2.3993C4.68396 2.42462 4.71113 2.44435 4.74179 2.45677C4.77647 2.47085 4.8172 2.47167 4.89866 2.47334L6.79096 2.5119C7.07721 2.51773 7.22032 2.52065 7.27746 2.57517C7.32688 2.62235 7.34925 2.69123 7.33699 2.75846C7.32286 2.83615 7.20879 2.92261 6.98064 3.0956L5.47239 4.23903C5.40745 4.28829 5.37501 4.3129 5.35519 4.34465C5.33769 4.37275 5.32733 4.40467 5.32498 4.43765C5.32234 4.47501 5.33411 4.51399 5.35771 4.592L5.90581 6.40361C5.98869 6.67764 6.03015 6.81465 5.99596 6.8858C5.96635 6.9474 5.90776 6.98996 5.84002 6.9991C5.76177 7.00962 5.64429 6.92787 5.40928 6.76434L3.8557 5.68329C3.78882 5.63675 3.7554 5.61348 3.71905 5.60442C3.68693 5.59647 3.65335 5.59647 3.62127 5.60442C3.58492 5.61348 3.55146 5.63675 3.48458 5.68329L1.93102 6.76434C1.69603 6.92787 1.57853 7.00962 1.50027 6.9991C1.43255 6.98996 1.37395 6.9474 1.34435 6.8858C1.31015 6.81465 1.3516 6.67764 1.43451 6.40361L1.98259 4.592C2.00618 4.51399 2.01798 4.47501 2.01532 4.43765C2.01297 4.40467 2.0026 4.37275 1.9851 4.34465C1.9653 4.3129 1.93283 4.28829 1.8679 4.23903L0.359669 3.0956C0.131528 2.92261 0.0174576 2.83615 0.00329728 2.75846C-0.00896257 2.69123 0.0134211 2.62235 0.0628544 2.57517C0.119967 2.52065 0.263085 2.51773 0.549317 2.5119L2.44162 2.47334C2.52308 2.47167 2.56381 2.47085 2.59852 2.45677C2.62917 2.44435 2.65633 2.42462 2.67763 2.3993C2.70173 2.37064 2.71511 2.33216 2.74186 2.2552L3.36328 0.467431Z" fill="#F79E1B"/>
</svg>
