<svg xmlns="http://www.w3.org/2000/svg" xmlns:xlink="http://www.w3.org/1999/xlink" version="1.1" width="256" height="256" viewBox="0 0 256 256" xml:space="preserve">
<g style="stroke: none; stroke-width: 0; stroke-dasharray: none; stroke-linecap: butt; stroke-linejoin: miter; stroke-miterlimit: 10; fill: none; fill-rule: nonzero; opacity: 1;" transform="translate(1.4065934065934016 1.4065934065934016) scale(2.81 2.81)">
	<path d="M 86.226 49.831 l -0.003 -0.001 c -2.994 -1.24 -3.226 -4.01 -3.226 -4.829 c -0.001 -0.82 0.232 -3.59 3.226 -4.83 c 1.509 -0.625 2.683 -1.8 3.308 -3.308 s 0.625 -3.169 0 -4.678 l -3.981 -9.611 c -1.291 -3.111 -4.869 -4.598 -7.987 -3.306 c -2.996 1.242 -5.118 -0.554 -5.696 -1.133 c -0.58 -0.58 -2.374 -2.703 -1.133 -5.698 c 0.624 -1.508 0.624 -3.169 -0.001 -4.677 c -0.625 -1.509 -1.8 -2.684 -3.307 -3.308 l -9.611 -3.981 c -3.111 -1.288 -6.694 0.196 -7.986 3.309 C 48.589 6.771 45.82 7.004 45 7.004 c -0.82 0 -3.59 -0.232 -4.83 -3.226 c -0.624 -1.509 -1.799 -2.684 -3.308 -3.309 c -1.508 -0.625 -3.169 -0.625 -4.679 0 l -9.608 3.98 c -1.509 0.625 -2.684 1.799 -3.309 3.308 c -0.625 1.509 -0.625 3.17 0 4.678 c 1.241 2.994 -0.554 5.118 -1.133 5.697 c -0.579 0.58 -2.7 2.376 -5.696 1.134 c -1.508 -0.624 -3.17 -0.624 -4.679 0 c -1.509 0.625 -2.684 1.8 -3.308 3.308 l -3.98 9.609 c -0.625 1.509 -0.625 3.17 0 4.679 s 1.8 2.684 3.308 3.308 C 6.77 41.41 7.003 44.181 7.003 45 c 0 0.819 -0.233 3.589 -3.229 4.83 c -3.113 1.291 -4.596 4.874 -3.306 7.985 l 3.98 9.61 c 0.625 1.509 1.8 2.683 3.308 3.308 c 1.507 0.624 3.168 0.625 4.678 0 c 2.993 -1.238 5.117 0.554 5.697 1.134 c 0.579 0.579 2.373 2.703 1.133 5.697 c -1.29 3.112 0.193 6.695 3.308 7.987 l 9.61 3.981 C 32.937 89.844 33.729 90 34.522 90 c 0.793 0 1.585 -0.156 2.339 -0.469 c 1.509 -0.625 2.684 -1.8 3.308 -3.307 c 1.241 -2.995 4.011 -3.227 4.83 -3.227 l 0 0 c 0.819 0 3.589 0.232 4.83 3.229 c 1.291 3.111 4.874 4.591 7.985 3.305 l 9.613 -3.981 c 3.111 -1.291 4.594 -4.873 3.305 -7.986 c -1.24 -2.994 0.554 -5.118 1.134 -5.697 c 0.58 -0.58 2.699 -2.376 5.698 -1.133 c 3.114 1.285 6.694 -0.196 7.986 -3.309 l 3.981 -9.61 C 90.82 54.703 89.337 51.121 86.226 49.831 z M 45 72.102 c -14.944 0 -27.102 -12.158 -27.102 -27.102 S 30.055 17.898 45 17.898 S 72.102 30.056 72.102 45 S 59.944 72.102 45 72.102 z" style="stroke: none; stroke-width: 1; stroke-dasharray: none; stroke-linecap: butt; stroke-linejoin: miter; stroke-miterlimit: 10; fill: rgb(0,0,0); fill-rule: nonzero; opacity: 1;" transform=" matrix(1 0 0 1 0 0) " stroke-linecap="round"/>
	<path d="M 37.483 71.031 c -0.032 -0.009 -0.065 -0.018 -0.097 -0.027 C 37.418 71.014 37.451 71.022 37.483 71.031 z" style="stroke: none; stroke-width: 1; stroke-dasharray: none; stroke-linecap: butt; stroke-linejoin: miter; stroke-miterlimit: 10; fill: rgb(0,0,0); fill-rule: nonzero; opacity: 1;" transform=" matrix(1 0 0 1 0 0) " stroke-linecap="round"/>
	<path d="M 36.073 70.583 c 0.013 0.005 0.027 0.009 0.04 0.013 C 36.099 70.591 36.086 70.587 36.073 70.583 z" style="stroke: none; stroke-width: 1; stroke-dasharray: none; stroke-linecap: butt; stroke-linejoin: miter; stroke-miterlimit: 10; fill: rgb(0,0,0); fill-rule: nonzero; opacity: 1;" transform=" matrix(1 0 0 1 0 0) " stroke-linecap="round"/>
	<path d="M 38.736 71.362 c 0.013 0.003 0.027 0.007 0.04 0.011 v -0.001 C 38.763 71.368 38.749 71.365 38.736 71.362 z" style="stroke: none; stroke-width: 1; stroke-dasharray: none; stroke-linecap: butt; stroke-linejoin: miter; stroke-miterlimit: 10; fill: rgb(0,0,0); fill-rule: nonzero; opacity: 1;" transform=" matrix(1 0 0 1 0 0) " stroke-linecap="round"/>
	<path d="M 51.224 71.371 v 0.001 c 0.013 -0.003 0.026 -0.007 0.039 -0.01 C 51.25 71.365 51.237 71.368 51.224 71.371 z" style="stroke: none; stroke-width: 1; stroke-dasharray: none; stroke-linecap: butt; stroke-linejoin: miter; stroke-miterlimit: 10; fill: rgb(0,0,0); fill-rule: nonzero; opacity: 1;" transform=" matrix(1 0 0 1 0 0) " stroke-linecap="round"/>
	<path d="M 52.521 71.03 c 0.03 -0.009 0.061 -0.017 0.092 -0.026 C 52.582 71.013 52.551 71.021 52.521 71.03 z" style="stroke: none; stroke-width: 1; stroke-dasharray: none; stroke-linecap: butt; stroke-linejoin: miter; stroke-miterlimit: 10; fill: rgb(0,0,0); fill-rule: nonzero; opacity: 1;" transform=" matrix(1 0 0 1 0 0) " stroke-linecap="round"/>
	<path d="M 53.927 70.582 c -0.013 0.005 -0.027 0.009 -0.04 0.013 C 53.901 70.591 53.914 70.587 53.927 70.582 z" style="stroke: none; stroke-width: 1; stroke-dasharray: none; stroke-linecap: butt; stroke-linejoin: miter; stroke-miterlimit: 10; fill: rgb(0,0,0); fill-rule: nonzero; opacity: 1;" transform=" matrix(1 0 0 1 0 0) " stroke-linecap="round"/>
	<path d="M 30.831 37.831 L 30.831 37.831 c -2.783 0 -5.039 2.256 -5.039 5.039 v 2.134 c 0 2.783 2.256 5.039 5.039 5.039 h 0 c 2.783 0 5.039 -2.256 5.039 -5.039 V 42.87 C 35.871 40.087 33.614 37.831 30.831 37.831 z" style="stroke: none; stroke-width: 1; stroke-dasharray: none; stroke-linecap: butt; stroke-linejoin: miter; stroke-miterlimit: 10; fill: rgb(0,0,0); fill-rule: nonzero; opacity: 1;" transform=" matrix(1 0 0 1 0 0) " stroke-linecap="round"/>
	<path d="M 59.169 37.831 L 59.169 37.831 c -2.783 0 -5.039 2.256 -5.039 5.039 v 2.134 c 0 2.783 2.256 5.039 5.039 5.039 h 0 c 2.783 0 5.039 -2.256 5.039 -5.039 V 42.87 C 64.208 40.087 61.952 37.831 59.169 37.831 z" style="stroke: none; stroke-width: 1; stroke-dasharray: none; stroke-linecap: butt; stroke-linejoin: miter; stroke-miterlimit: 10; fill: rgb(0,0,0); fill-rule: nonzero; opacity: 1;" transform=" matrix(1 0 0 1 0 0) " stroke-linecap="round"/>
	<path d="M 45 33.227 L 45 33.227 c -3.039 0 -5.502 2.463 -5.502 5.502 v 2.33 c 0 3.039 2.463 5.502 5.502 5.502 h 0 c 3.039 0 5.502 -2.463 5.502 -5.502 v -2.33 C 50.502 35.691 48.039 33.227 45 33.227 z" style="stroke: none; stroke-width: 1; stroke-dasharray: none; stroke-linecap: butt; stroke-linejoin: miter; stroke-miterlimit: 10; fill: rgb(0,0,0); fill-rule: nonzero; opacity: 1;" transform=" matrix(1 0 0 1 0 0) " stroke-linecap="round"/>
	<path d="M 47.483 50.854 h -4.967 c -3.794 0 -6.869 3.075 -6.869 6.869 v 8.635 c 2.882 1.201 6.04 1.867 9.352 1.867 c 3.312 0 6.471 -0.666 9.353 -1.867 v -8.635 C 54.352 53.929 51.277 50.854 47.483 50.854 z" style="stroke: none; stroke-width: 1; stroke-dasharray: none; stroke-linecap: butt; stroke-linejoin: miter; stroke-miterlimit: 10; fill: rgb(0,0,0); fill-rule: nonzero; opacity: 1;" transform=" matrix(1 0 0 1 0 0) " stroke-linecap="round"/>
	<path d="M 61.443 53.975 h -4.109 c 0.445 1.167 0.7 2.427 0.7 3.748 v 6.701 c 3.313 -2.103 6.091 -4.976 8.067 -8.375 C 64.951 54.778 63.293 53.975 61.443 53.975 z" style="stroke: none; stroke-width: 1; stroke-dasharray: none; stroke-linecap: butt; stroke-linejoin: miter; stroke-miterlimit: 10; fill: rgb(0,0,0); fill-rule: nonzero; opacity: 1;" transform=" matrix(1 0 0 1 0 0) " stroke-linecap="round"/>
	<path d="M 31.965 57.723 c 0 -1.321 0.255 -2.582 0.7 -3.748 h -4.108 c -1.85 0 -3.509 0.804 -4.66 2.075 c 1.977 3.399 4.754 6.272 8.068 8.375 V 57.723 z" style="stroke: none; stroke-width: 1; stroke-dasharray: none; stroke-linecap: butt; stroke-linejoin: miter; stroke-miterlimit: 10; fill: rgb(0,0,0); fill-rule: nonzero; opacity: 1;" transform=" matrix(1 0 0 1 0 0) " stroke-linecap="round"/>
</g>
</svg>