<svg width="26" height="24" viewBox="0 0 26 24" fill="none" xmlns="http://www.w3.org/2000/svg">
<g clip-path="url(#clip0_653_13781)">
<path d="M12.6663 12C13.919 12 15.1434 11.6481 16.185 10.9888C17.2265 10.3295 18.0382 9.39246 18.5176 8.2961C18.9969 7.19975 19.1224 5.99335 18.878 4.82946C18.6336 3.66557 18.0304 2.59648 17.1447 1.75736C16.259 0.918247 15.1305 0.346802 13.9019 0.115291C12.6734 -0.11622 11.3999 0.00259972 10.2427 0.456725C9.08541 0.910851 8.09628 1.67989 7.40037 2.66658C6.70445 3.65328 6.33301 4.81331 6.33301 6C6.33468 7.59081 7.00248 9.11601 8.18985 10.2409C9.37722 11.3658 10.9872 11.9984 12.6663 12ZM12.6663 2C13.5014 2 14.3177 2.2346 15.0121 2.67412C15.7064 3.11365 16.2476 3.73836 16.5672 4.46927C16.8867 5.20017 16.9703 6.00444 16.8074 6.78036C16.6445 7.55629 16.2424 8.26902 15.6519 8.82843C15.0614 9.38784 14.3091 9.7688 13.4901 9.92314C12.671 10.0775 11.8221 9.99827 11.0506 9.69552C10.2791 9.39277 9.61964 8.88008 9.15569 8.22228C8.69175 7.56449 8.44412 6.79113 8.44412 6C8.44412 4.93914 8.88896 3.92172 9.68078 3.17158C10.4726 2.42143 11.5465 2 12.6663 2Z" fill="#2790C3"/>
<path d="M12.667 14C10.1483 14.0026 7.73355 14.9517 5.95256 16.639C4.17157 18.3262 3.16979 20.6139 3.16699 23C3.16699 23.2652 3.2782 23.5196 3.47616 23.7071C3.67411 23.8946 3.9426 24 4.22255 24C4.5025 24 4.77098 23.8946 4.96894 23.7071C5.16689 23.5196 5.2781 23.2652 5.2781 23C5.2781 21.1435 6.05657 19.363 7.44226 18.0503C8.82794 16.7375 10.7073 16 12.667 16C14.6266 16 16.506 16.7375 17.8917 18.0503C19.2774 19.363 20.0559 21.1435 20.0559 23C20.0559 23.2652 20.1671 23.5196 20.365 23.7071C20.563 23.8946 20.8315 24 21.1114 24C21.3914 24 21.6599 23.8946 21.8578 23.7071C22.0558 23.5196 22.167 23.2652 22.167 23C22.1642 20.6139 21.1624 18.3262 19.3814 16.639C17.6004 14.9517 15.1857 14.0026 12.667 14Z" fill="#2790C3"/>
</g>
<defs>
<clipPath id="clip0_653_13781">
<rect width="25.3333" height="24" fill="white"/>
</clipPath>
</defs>
</svg>
