<svg width="17" height="17" viewBox="0 0 17 17" fill="none" xmlns="http://www.w3.org/2000/svg">
<path fill-rule="evenodd" clip-rule="evenodd" d="M6.45354 1.02023C6.24655 1.19663 6.14304 1.28485 6.0325 1.35893C5.77912 1.52876 5.49455 1.64663 5.19529 1.70571C5.06473 1.73149 4.92918 1.74231 4.65807 1.76394C3.9769 1.81831 3.6363 1.84548 3.35215 1.94585C2.69494 2.17798 2.17798 2.69494 1.94585 3.35215C1.84548 3.6363 1.81831 3.9769 1.76394 4.65807C1.74231 4.92918 1.73149 5.06473 1.70571 5.19529C1.64663 5.49455 1.52876 5.77912 1.35893 6.0325C1.28485 6.14304 1.19664 6.24654 1.02023 6.45354C0.577008 6.97366 0.355387 7.23367 0.225439 7.50559C-0.0751464 8.1345 -0.0751464 8.8655 0.225439 9.49442C0.355396 9.76633 0.577008 10.0263 1.02023 10.5465C1.19661 10.7534 1.28485 10.857 1.35893 10.9675C1.52876 11.2208 1.64663 11.5054 1.70571 11.8047C1.73149 11.9353 1.74231 12.0708 1.76394 12.3419C1.81831 13.0231 1.84548 13.3637 1.94585 13.6479C2.17798 14.3051 2.69494 14.822 3.35215 15.0542C3.6363 15.1545 3.9769 15.1817 4.65807 15.2361C4.92918 15.2577 5.06473 15.2685 5.19529 15.2943C5.49455 15.3534 5.77912 15.4713 6.0325 15.6411C6.14304 15.7151 6.24654 15.8034 6.45354 15.9797C6.97366 16.423 7.23367 16.6446 7.50559 16.7746C8.1345 17.0751 8.8655 17.0751 9.49442 16.7746C9.76633 16.6446 10.0263 16.423 10.5465 15.9797C10.7534 15.8034 10.857 15.7151 10.9675 15.6411C11.2208 15.4713 11.5054 15.3534 11.8047 15.2943C11.9353 15.2685 12.0708 15.2577 12.3419 15.2361C13.0231 15.1817 13.3637 15.1545 13.6479 15.0542C14.3051 14.822 14.822 14.3051 15.0542 13.6479C15.1545 13.3637 15.1817 13.0231 15.2361 12.3419C15.2577 12.0708 15.2685 11.9353 15.2943 11.8047C15.3534 11.5054 15.4713 11.2208 15.6411 10.9675C15.7151 10.857 15.8034 10.7534 15.9797 10.5465C16.423 10.0263 16.6446 9.76633 16.7746 9.49442C17.0751 8.8655 17.0751 8.1345 16.7746 7.50559C16.6446 7.23367 16.423 6.97366 15.9797 6.45354C15.8034 6.24654 15.7151 6.14304 15.6411 6.0325C15.4713 5.77912 15.3534 5.49455 15.2943 5.19529C15.2685 5.06473 15.2577 4.92918 15.2361 4.65807C15.1817 3.9769 15.1545 3.6363 15.0542 3.35215C14.822 2.69494 14.3051 2.17798 13.6479 1.94585C13.3637 1.84548 13.0231 1.81831 12.3419 1.76394C12.0708 1.74231 11.9353 1.73149 11.8047 1.70571C11.5054 1.64663 11.2208 1.52876 10.9675 1.35893C10.857 1.28485 10.7534 1.19664 10.5465 1.02023C10.0263 0.577008 9.76633 0.355396 9.49442 0.225439C8.8655 -0.0751464 8.1345 -0.0751464 7.50559 0.225439C7.23367 0.355387 6.97366 0.577008 6.45354 1.02023ZM12.2175 6.68367C12.4876 6.41351 12.4876 5.9755 12.2175 5.70534C11.9473 5.43518 11.5093 5.43518 11.2391 5.70534L7.11646 9.82804L5.76084 8.47246C5.49069 8.20233 5.05267 8.20233 4.78252 8.47246C4.51236 8.74259 4.51236 9.1806 4.78252 9.45081L6.62726 11.2956C6.89741 11.5657 7.33542 11.5657 7.60563 11.2956L12.2175 6.68367Z" fill="#F79E1B"/>
</svg>
