<svg width="17" height="17" viewBox="0 0 17 17" fill="none" xmlns="http://www.w3.org/2000/svg">
<mask id="mask0_653_13173" style="mask-type:luminance" maskUnits="userSpaceOnUse" x="0" y="0" width="17" height="17">
<path d="M17 0H0V17H17V0Z" fill="white"/>
</mask>
<g mask="url(#mask0_653_13173)">
<path fill-rule="evenodd" clip-rule="evenodd" d="M6.96078 1.57759C7.64585 0.416846 9.35471 0.416845 10.0398 1.57759L16.7593 12.9629C17.4662 14.1606 16.5496 15.582 15.2198 15.582H1.78072C0.450985 15.582 -0.465624 14.1606 0.24123 12.9629L6.96078 1.57759ZM7.12509 4.99632C7.10256 4.59031 7.4257 4.2487 7.83236 4.2487H9.16813C9.57479 4.2487 9.89793 4.59031 9.8754 4.99632L9.59993 9.95468C9.57904 10.33 9.26857 10.6237 8.89266 10.6237H8.10783C7.73191 10.6237 7.42145 10.33 7.40056 9.95468L7.12509 4.99632ZM9.91691 12.7487C9.91691 13.5311 9.28267 14.1654 8.50024 14.1654C7.71782 14.1654 7.08358 13.5311 7.08358 12.7487C7.08358 11.9663 7.71782 11.332 8.50024 11.332C9.28267 11.332 9.91691 11.9663 9.91691 12.7487Z" fill="#F79E1B"/>
</g>
</svg>
