<svg width="14" height="14" viewBox="0 0 14 14" fill="none" xmlns="http://www.w3.org/2000/svg">
<path fill-rule="evenodd" clip-rule="evenodd" d="M5.05273 11.4135C5.17987 11.6518 5.30718 11.8665 5.42887 12.0567C4.13592 11.766 3.01399 11.0233 2.23765 10.0034C2.75002 9.71482 3.40626 9.41572 4.19519 9.19686C4.41941 10.0763 4.73575 10.8191 5.05273 11.4135ZM6.0307 10.8919C5.75532 10.3756 5.47934 9.73086 5.2805 8.96692C5.70854 8.90337 6.16548 8.86672 6.65012 8.86672C7.13468 8.86672 7.59161 8.90337 8.01958 8.96684C7.82075 9.73086 7.54477 10.3756 7.26938 10.8919C7.0486 11.3059 6.82863 11.6364 6.65004 11.8782C6.47145 11.6364 6.25148 11.3059 6.0307 10.8919ZM4.98753 6.65004C4.98753 7.08163 5.01657 7.49127 5.06778 7.87801C5.56158 7.80227 6.08952 7.75838 6.65012 7.75838C7.21064 7.75838 7.73858 7.8022 8.23231 7.87801C8.28351 7.4912 8.31255 7.08163 8.31255 6.65004C8.31255 6.21845 8.28351 5.80889 8.23231 5.42208C7.73858 5.49781 7.21064 5.5417 6.65012 5.5417C6.08952 5.5417 5.56158 5.49781 5.06778 5.42208C5.01657 5.80881 4.98753 6.21845 4.98753 6.65004ZM3.98033 5.19354C3.91597 5.65091 3.87919 6.13681 3.87919 6.65004C3.87919 7.16328 3.91597 7.64917 3.98033 8.10655C3.03935 8.35918 2.26014 8.7154 1.65752 9.05817C1.30561 8.32999 1.10834 7.51307 1.10834 6.65004C1.10834 5.78701 1.30561 4.97012 1.65751 4.2419C2.26007 4.58463 3.03929 4.94088 3.98033 5.19354ZM5.2805 4.3332C5.70854 4.39673 6.16548 4.43336 6.65012 4.43336C7.13468 4.43336 7.59161 4.39673 8.01958 4.33322C7.82075 3.56926 7.54477 2.92449 7.26938 2.4082C7.0486 1.99423 6.82863 1.66366 6.65004 1.42187C6.47145 1.66366 6.25148 1.99423 6.0307 2.40819C5.75532 2.92447 5.47934 3.56925 5.2805 4.3332ZM9.31974 5.19361C9.3841 5.65098 9.42089 6.13688 9.42089 6.65004C9.42089 7.16328 9.3841 7.6491 9.31974 8.10647C10.2607 8.35918 11.04 8.7154 11.6426 9.05817C11.9945 8.32992 12.1917 7.513 12.1917 6.65004C12.1917 5.78709 11.9945 4.97015 11.6426 4.24194C11.04 4.58466 10.2608 4.94091 9.31974 5.19361ZM11.0624 3.29678C10.55 3.58534 9.89378 3.8844 9.10494 4.10328C8.88069 3.22382 8.56437 2.48098 8.24738 1.88663C8.12022 1.6483 7.99291 1.43364 7.87121 1.24334C9.1642 1.53411 10.2861 2.2768 11.0624 3.29678ZM4.19518 4.10326C3.40631 3.88437 2.75009 3.58531 2.23766 3.29674C3.01399 2.27678 4.13592 1.53411 5.4288 1.24334C5.30718 1.43364 5.17987 1.64829 5.05272 1.88662C4.73575 2.48096 4.41941 3.2238 4.19518 4.10326ZM9.10494 9.19679C8.88069 10.0763 8.56437 10.8191 8.24738 11.4135C8.12022 11.6518 7.99291 11.8665 7.87121 12.0567C9.1642 11.766 10.2861 11.0233 11.0625 10.0033C10.5501 9.71475 9.89386 9.41572 9.10494 9.19679ZM6.65004 13.3001C10.3228 13.3001 13.3001 10.3228 13.3001 6.65004C13.3001 2.97733 10.3228 0 6.65004 0C2.97733 0 0 2.97733 0 6.65004C0 10.3228 2.97733 13.3001 6.65004 13.3001Z" fill="#2790C3"/>
</svg>
